<?xml version="1.0" encoding="UTF-8" standalone="no"?>
<!-- Created with Keyshape -->
<svg xmlns="http://www.w3.org/2000/svg" xmlns:xlink="http://www.w3.org/1999/xlink" width="1140px" height="700px" viewBox="0 0 1140 700">
    <title>frame</title>
    <desc>Created with Sketch.</desc>
    <path id="Path-28" d="M762.708,66.4229C762.708,66.4229,1007.85,305.633,885.279,366.918C762.708,428.204,525.475,416.342,644.092,542.866C762.708,669.391,831.901,742.538,689.561,835.454C547.221,928.37,400.927,799.869,511.636,969.886C622.345,1139.9,541.29,1189.33,480.005,1197.23C418.72,1205.14,179.51,1234.8,270.449,1315.85C361.389,1396.91,393.02,1468.08,349.527,1525.41C306.034,1582.74,292.196,1614.37,329.758,1691.47C367.319,1768.57,236.841,1851.6,203.233,1736.94C169.625,1622.28,136.017,1531.34,169.625,1468.08C203.233,1404.81,205.21,1359.34,136.017,1331.67C66.824,1303.99,54.9623,1126.06,157.763,1092.46C260.564,1058.85,131.046,1077.93,169.625,954.071C208.205,830.21,151.833,776.146,270.449,730.676C389.066,685.206,379.181,600.198,329.758,542.866C280.334,485.535,256.611,323.426,361.389,285.864C466.167,248.302,687.584,230.509,659.907,161.316C632.23,92.1231,762.708,66.4229,762.708,66.4229Z" fill="#081340" transform="translate(500.969,929.923) rotate(56) translate(-500.969,-929.923)"/>
    <path id="Path-26-Copy-2" d="M1199.51,171.912C1154.43,189.945,1121.1,216.718,1091.98,328.731C1062.86,440.745,1015.81,445.226,937.401,458.668C858.991,472.109,735.776,555,729.055,673.734C722.334,792.469,764.899,924.646,729.055,980.653C693.21,1036.66,720.094,1124.03,782.821,1056.82C845.549,989.614,874.673,835.034,1004.61,792.469C1134.55,749.904,1336.17,642.37,1313.77,550.519C1291.36,458.668,1217.44,326.491,1226.4,274.965C1235.36,223.438,1244.6,153.879,1199.51,171.912Z" fill="#D59FA0"/>
    <path id="Path-27-Copy" d="M38.2532,367.449C-82.0603,431.42,-147.765,437.508,-170.543,641.01C-193.321,844.513,-122.093,892.887,-107.904,822.828C-93.7149,752.77,-123.089,662.695,-49.0615,679.376C24.9662,696.056,-13.9928,776.551,-39.5708,846.181C-65.1488,915.811,-28.088,1044.25,5.08261,1044.25C38.2532,1044.25,7.99772,902.445,24.9662,871.202C41.9346,839.959,104.688,829.501,104.688,892.887C104.688,956.273,157.836,1095.39,199.596,1078.71C241.355,1062.03,190.105,1022.99,182.512,934.588C174.92,846.181,193.901,744.43,248.947,651.019C303.994,557.608,322.975,424.163,281.216,400.81C239.457,377.458,158.567,303.479,38.2532,367.449Z" fill="#D59FA0" transform="translate(64.4364,711.539) scale(1,-1) translate(-64.4364,-711.539)"/>
    <path id="Path-8" d="M-14,255.165C-14,255.165,43,264.165,48,229.165C53,194.165,30,118.165,39,90.1646C48,62.1646,94,46.1646,119,68.1646C144,90.1646,183,116.165,220,82.1646C257,48.1646,313,-12.8354,356,-5.83544C399,1.16456,493,35.1646,509,14.1646C525,-6.83544,594,14.1646,612,22.1646C630,30.1646,655,54.1646,697,68.1646C739,82.1646,801,101.165,856,54.1646C911,7.16456,929,-46.8354,974,-64.8354C1019,-82.8354,1051,-121.835,1082,-115.835C1113,-109.835,1153,-130.835,1158,-141.835C1163,-152.835,1162,-206.835,1148,-209.835C1134,-212.835,930,-222.835,918,-200.835C906,-178.835,892,-162.835,901,-130.835C910,-98.8354,921,-82.8354,906,-70.8354C891,-58.8354,885,-52.8354,878,-42.8354C871,-32.8354,854,-42.8354,844,-42.8354C834,-42.8354,823,-42.8354,820,-24.8354C817,-6.83544,779,11.1646,762,2.16456C745,-6.83544,741,-6.83544,723,-6.83544C705,-6.83544,685,-22.8354,672,-32.8354C659,-42.8354,611,-40.8354,584,-32.8354C557,-24.8354,509,-14.8354,509,-28.8354C509,-42.8354,482,-97.8354,471,-106.835C460,-115.835,435,-101.835,423,-92.8354C411,-83.8354,387,-102.835,375,-111.835C363,-120.835,338,-114.835,335,-92.8354C332,-70.8354,243,-64.8354,214,-78.8354C185,-92.8354,164,-148.835,144,-196.835C130.667,-228.835,71.3333,-234.502,-34,-213.835L-40,199.165C-22.6667,236.498,-14,255.165,-14,255.165Z" fill="#FFD5D6"/>
    <path id="Path-26-Copy" d="M1296.51,172.912C1251.43,190.945,1218.1,217.718,1188.98,329.731C1159.86,441.745,1112.81,446.226,1034.4,459.668C955.991,473.109,832.776,556,826.055,674.734C819.334,793.469,861.899,925.646,826.055,981.653C790.21,1037.66,817.094,1125.03,879.821,1057.82C942.549,990.614,971.673,836.034,1101.61,793.469C1231.55,750.904,1433.17,643.37,1410.77,551.519C1388.36,459.668,1314.44,327.491,1323.4,275.965C1332.36,224.438,1341.6,154.879,1296.51,172.912Z" fill="#222D5C"/>
    <path id="Flower-Copy" d="M964.571,-89C962.285,-89,955.088,-87.9959,954.262,-83.9106C953.436,-79.8253,954.778,-59.1453,957.331,-50.6995C959.884,-42.2536,969.637,5.2651,968.77,10.1335C967.902,15.002,974.104,27.2158,973.045,29.5863C971.987,31.9567,965.466,13.2661,963.593,5.66719C961.72,-1.93178,952.978,-34.3808,951.602,-38.7624C950.227,-43.144,944.322,-70.6687,942.586,-74.7113C940.85,-78.7538,935.453,-77.1875,933.526,-71.8322C931.6,-66.477,962.969,23.0378,966.419,31.0396C969.87,39.0413,969.246,47.1481,966.419,43.1896C963.593,39.2311,909.713,-55.9569,908.654,-58.2644C907.949,-59.8027,904.301,-59.0335,897.711,-55.9569C936.368,2.98592,955.969,33.3465,956.514,35.1248C957.331,37.7923,955.16,40.4598,953.381,37.7923C951.602,35.1248,894.853,-20.9259,893.287,-24.5664C891.721,-28.2068,884.672,-33.2238,881.603,-31.6995C878.534,-30.1752,870.977,-28.4821,874.491,-24.5664C878.004,-20.6506,960.767,56.4967,963.593,57.7457C966.419,58.9947,962.127,62.0853,958.194,61.2384C954.262,60.3915,880.954,28.8096,877.723,22.8407C874.491,16.8718,853.464,13.782,853.232,15.1787C853.077,16.1099,852.999,19.1298,852.999,24.2382C924.582,54.1405,961.772,68.4142,964.571,67.0595C968.77,65.0273,954.552,71.0383,951.602,70.742C948.653,70.4456,880.954,90.1744,877.723,88.8617C874.491,87.5489,866.356,94.0684,863.223,93.0737C860.09,92.079,851.136,92.0573,852.068,95.0631C852.999,98.069,853.17,104.419,857.148,104.694C861.127,104.97,903.831,94.6364,907.768,90.8895C911.706,87.1425,964.069,72.4734,966.419,73.8072C968.77,75.1409,965.549,78.3583,964.571,79.311C963.593,80.2637,921.116,108.501,918.767,111.845C916.417,115.189,902.214,125.265,899.314,125.646C896.414,126.027,877.978,137.71,878.634,141.775C879.29,145.839,879.322,152.359,881.603,151.152C883.883,149.945,910.211,129.646,912.584,126.746C914.957,123.846,943.533,98.6536,945.713,96.8584C947.892,95.0631,953.381,91.0843,953.381,93.0737C953.381,95.0631,945.576,102.892,942.586,105.855C939.595,108.818,932.166,119.676,928.969,122.661C925.773,125.646,912.677,138.036,908.654,141.775C904.632,145.514,892.905,159.166,888.82,162.405C884.735,165.644,876.333,176.163,874.491,176.799C872.648,177.434,867.589,180.672,871.04,184.779C874.491,188.885,882.428,187.022,884.693,182.852C886.957,178.682,951.193,106.417,954.262,103.708C957.331,100.999,974.568,76.4189,975.838,79.311C977.108,82.2031,972.134,94.6495,969.911,99.1788C967.689,103.708,956.922,138.163,954.262,141.775C951.602,145.386,945,175.126,942.586,179.952C940.172,184.779,932.554,198.346,933.526,202.051C934.498,205.755,938.372,207.386,940.997,204.718C943.622,202.051,955.696,162.354,956.514,156.753C957.331,151.152,970.253,112.353,973.045,103.708C975.838,95.0631,977.954,87.6634,979.182,87.6214C980.41,87.5794,981.638,95.4326,980.41,99.1788C979.182,102.925,978.378,110.135,977.108,117.89C975.838,125.646,974.698,150.868,973.045,155.102C971.393,159.336,971.053,165.919,969.911,169.75C968.77,173.581,967.54,185.816,967.519,189.817C967.498,193.817,968.267,198.43,966.419,202.051C964.571,205.671,973.851,208.613,973.045,199.85C972.24,191.087,974.568,163.336,975.838,156.753C977.108,150.171,983.67,130.882,982.992,122.661C982.315,114.441,982.929,93.6069,986.041,96.8584C989.152,100.11,987.629,102.82,989.152,108.979C990.676,115.139,998.15,156.445,999.674,160.996C1001.2,165.547,1006.98,193.128,1011.27,190.736C1015.57,188.344,1018.62,189.254,1016.42,178.395C1014.22,167.536,1000.27,106.318,997.303,100.691C994.34,95.0631,991.377,86.3811,994.34,87.6214C997.303,88.8617,1007.95,106.114,1011.27,108.979C1014.6,111.845,1040.59,146.44,1044.82,151.152C1049.06,155.865,1068.63,177.096,1070.79,175.657C1072.95,174.217,1077.23,170.598,1072.95,168.1C1068.68,165.602,1007.04,95.258,1006.85,93.0737C1006.66,90.8895,1056.23,125.3,1060.4,132.137C1064.57,138.974,1088.45,161.091,1091.45,162.405C1094.46,163.718,1098.88,163.993,1097.74,158.977C1096.6,153.96,1089.19,148.238,1085.99,145.007C1082.8,141.775,1067.26,125.949,1063.83,124.305C1060.4,122.661,1006.57,79.1139,1002.72,77.886C998.868,76.658,996.56,72.2278,1000.52,73.0175C1004.48,73.8072,1077.53,83.2398,1080.26,84.9756C1082.99,86.7114,1098.86,93.0737,1101.85,93.0737C1104.83,93.0737,1131.35,101.499,1135.02,99.1788C1138.68,96.8584,1142.74,90.102,1137.49,88.8617C1132.24,87.6214,1111.71,84.4257,1107.29,82.3298C1102.86,80.234,1095.41,76.3588,1091.45,77.1224C1087.5,77.886,1058.69,76.0777,1054.22,74.9424C1049.76,73.8072,1036.93,69.251,1030.43,70.742C1023.93,72.2329,1009.33,68.1302,1010.3,67.0595C1011.27,65.9887,1021.96,64.9179,1024.27,65.9887C1026.58,67.0595,1054.09,64.9179,1056.61,65.9887C1059.13,67.0595,1083.92,66.0981,1085.99,67.0595C1088.07,68.0208,1114.8,69.7994,1119.57,69.2488C1124.33,68.6982,1131,71.4382,1132.01,69.2488C1133.03,67.0595,1134.42,67.6905,1132.01,64.4644C1129.6,61.2384,1128.77,59.3663,1127.9,57.7457C1127.04,56.1251,1126.68,56.1888,1124.62,56.1251C1122.57,56.0613,1085.95,57.8174,1080.26,56.9712C1074.56,56.1251,1045.35,56.5726,1042.37,57.8174C1039.38,59.0623,1014.45,58.0123,1011.27,61.2384C1008.1,64.4644,1001.62,63.5755,1005.05,60.2734C1008.48,56.9712,1037.2,49.7323,1039.79,48.0813C1042.37,46.4302,1084.68,34.0222,1087.67,33.4296C1090.65,32.837,1100.07,26.8579,1100.96,24.2382C1101.85,21.6186,1107.99,16.072,1101.85,17.0885C1095.71,18.1049,1086.42,21.4432,1083.86,22.8407C1081.29,24.2382,1066.35,31.7582,1062.43,31.927C1058.52,32.0958,1046.64,40.1186,1043.68,39.7375C1040.72,39.3565,1022.55,46.3498,1017.73,48.0813C1012.9,49.8127,1007.38,55.4006,1005.05,54.1943C1002.72,52.9881,1004.77,51.316,1006.85,48.9876C1008.92,46.6591,1035.89,33.786,1039.79,29.5863C1043.68,25.3865,1051.87,22.9096,1055.11,18.2527C1058.35,13.5958,1075.53,-0.237968,1082.05,-3.5401C1088.57,-6.84223,1098.99,-10.5892,1099.13,-13.7218C1099.28,-16.8544,1100.82,-22.3089,1099.28,-24.5664C1097.74,-26.8238,1088.13,-22.6538,1085.99,-19.5212C1083.86,-16.3886,1055.04,3.61476,1052.02,7.44576C1048.99,11.2768,1041.09,16.4343,1036.37,20.3362C1031.65,24.2382,1028.9,26.8166,1022.66,31.927C1016.42,37.0374,1007.38,43.4715,1005.05,44.9747C1002.72,46.478,1001.13,46.1469,1003.99,40.6359C1006.85,35.1248,1021.05,7.00093,1021.85,1.73042C1022.66,-3.5401,1029.75,-12.7901,1032.65,-16.6639C1035.55,-20.5376,1049.11,-42.4115,1051.14,-46.5555C1053.17,-50.6995,1058.61,-58.2644,1053.17,-58.2644C1047.73,-58.2644,1044.47,-54.9166,1040.85,-49.8156C1037.23,-44.7146,1028.56,-25.3597,1024.27,-16.6639C1019.98,-7.96806,1015.22,1.20083,1013.25,5.66719C1011.27,10.1335,1010.27,15.199,1007.66,19.0199C1005.05,22.8407,1000.27,29.0154,997.303,34.3765C994.34,39.7375,992.813,44.9747,990.42,44.9747C988.028,44.9747,988.324,40.0498,988.028,34.3765C987.732,28.7031,989.615,-3.08948,991.521,-11.8317C993.426,-20.5738,997.303,-24.1085,997.303,-30.2259C997.303,-36.3434,999.793,-46.1636,998.548,-49.8156C997.303,-53.4677,997.16,-64.8556,994.34,-63.8182C991.521,-62.7807,984.054,-59.3989,986.041,-55.9569C988.028,-52.515,990.015,-31.1207,988.028,-24.5664C986.041,-18.0121,984.215,6.85242,985.128,12.5525C986.041,18.2527,987.091,45.7434,984.215,43.1896C981.34,40.6359,978.694,35.3625,978.334,31.927C977.974,28.4916,972.758,-30.1426,970.764,-34.4525C968.77,-38.7624,966.419,-44.6538,966.419,-52.7403C966.419,-60.8268,966.858,-89,964.571,-89Z" fill="#7F87AA" transform="translate(1008.5,52) rotate(1) scale(-1,-1) translate(-983.5,-65.0358)"/>
    <script><![CDATA[window.ks=function(){function z(a){return"undefined"!==typeof a}function v(a,b){return a&&0==a.indexOf(b)}function N(a){if(!isFinite(a))throw"non-finite value";}function O(a){if(14>=a)return 16;(a=X[a])||(a=0);return a}function D(a){return 0<=a?Math.pow(a,1/3):-Math.pow(-a,1/3)}function Y(a,b,c,d){if(0==a)return 0==b?b=-d/c:(a=Math.sqrt(c*c-4*b*d),d=(-c+a)/(2*b),0<=d&&1>=d?b=d:(d=(-c-a)/(2*b),b=0<=d&&1>=d?d:0)),b;var e=c/a-b*b/(a*a)/3;c=b*b*b/(a*a*a)/13.5-b*c/(a*a)/3+d/a;var k=c*c/4+e*e*e/27;b=-b/
(3*a);if(0>=k){if(0==e&&0==c)return-D(d/a);a=Math.sqrt(c*c/4-k);d=Math.acos(-c/2/a);c=Math.cos(d/3);d=Math.sqrt(3)*Math.sin(d/3);a=D(a);e=2*a*c+b;if(0<=e&&1>=e)return e;e=-a*(c+d)+b;if(0<=e&&1>=e)return e;e=a*(d-c)+b;if(0<=e&&1>=e)return e}else{a=D(-c/2+Math.sqrt(k));c=D(-c/2-Math.sqrt(k));d=a+c+b;if(0<=d&&1>=d)return d;d=-(a+c)/2+b;if(0<=d&&1>=d)return d}return 0}function Z(a,b){if(48==a&&"number"===typeof b)return"#"+("000000"+b.toString(16)).substr(-6);if(64==a)return b=b.map(function(a){return a+
"px"}),b.join(",");if(96==a){a="";for(var c=b.length,d=0;d<c;d+=2)a+=b[d],a+=b[d+1].join(",");return a}if(80==a){if(0==b[0])return"none";a="";c=b.length;for(d=0;d<c;)a+=R[b[d]],1==b[d]?a+="("+b[d+1]+") ":5==b[d]?(a+="("+b[d+1]+"px "+b[d+2]+"px "+b[d+3]+"px rgba("+(b[d+4]>>>24)+","+(b[d+4]>>16&255)+","+(b[d+4]>>8&255)+","+(b[d+4]&255)/255+")) ",d+=3):a=2==b[d]?a+("("+b[d+1]+"px) "):7==b[d]?a+("("+b[d+1]+"deg) "):a+("("+(0>b[d+1]?0:b[d+1])+") "),d+=2;return a}return 32==a?b+"px":b}function w(a){return 0>=
a?0:255<=a?255:a}function aa(a,b,c,d){if(16==a||32==a)return(c-b)*d+b;if(0==a)return.5>d?b:c;if(48==a){if("number"===typeof b&&"number"===typeof c){var e=1-d;return w(e*(b>>16)+d*(c>>16))<<16|w(e*(b>>8&255)+d*(c>>8&255))<<8|w(e*(b&255)+d*(c&255))}return.5>d?b:c}if(64==a){0==b.length&&(b=[0]);0==c.length&&(c=[0]);var k=b.length;b.length!=c.length&&(k=b.length*c.length);var h=[];for(a=0;a<k;++a){var f=b[a%b.length];var g=(c[a%c.length]-f)*d+f;0>g&&(g=0);h.push(g)}return h}if(96==a){if(b.length!=c.length)return.5>
d?b:c;k=b.length;h=[];for(a=0;a<k;a+=2){if(b[a]!==c[a])return.5>d?b:c;h[a]=b[a];h[a+1]=[];for(f=0;f<b[a+1].length;++f)h[a+1].push((c[a+1][f]-b[a+1][f])*d+b[a+1][f])}return h}if(80==a){k=b.length;if(k!=c.length)return.5>d?b:c;h=[];for(a=0;a<k;){if(b[a]!=c[a]||1==b[a])return.5>d?b:c;h[a]=b[a];h[a+1]=(c[a+1]-b[a+1])*d+b[a+1];if(5==b[a]){h[a+2]=(c[a+2]-b[a+2])*d+b[a+2];h[a+3]=(c[a+3]-b[a+3])*d+b[a+3];e=1-d;var l=b[a+4],q=c[a+4];g=e*(l>>>24)+d*(q>>>24);var n=e*(l>>16&255)+d*(q>>16&255);f=e*(l>>8&255)+
d*(q>>8&255);h[a+4]=(w(n)<<16|w(f)<<8|w(e*(l&255)+d*(q&255)))+16777216*(w(g)|0);a+=3}a+=2}return h}return 0}function S(a,b){a:{var c=a+b[2];var d=b[4].length;for(var e=0;e<d;++e)if(c<b[4][e]){c=e;break a}c=d-1}d=b[2];e=b[4][c-1]-d;a=(a-e)/(b[4][c]-d-e);if(b[6]&&b[6].length>c-1)if(d=b[6][c-1],1==d[0])if(0>=a)a=0;else if(1<=a)a=1;else{e=d[1];var k=d[3];a=Y(3*e-3*k+1,-6*e+3*k,3*e,-a);a=3*a*(1-a)*(1-a)*d[2]+3*a*a*(1-a)*d[4]+a*a*a}else 2==d[0]?(d=d[1],a=Math.ceil(a*d)/d):3==d[0]&&(d=d[1],a=Math.floor(a*
d)/d);return aa(b[1]&240,b[5][c-1],b[5][c],a)}function P(){A=(new Date).getTime()}function J(a){for(var b=!1,c=0;c<x.length;++c)x[c].F(a)&&(b=!0);a&&x.forEach(function(a){a.l&&(a.l=!1,a.onfinish&&(a.onfinish(),b=!0))});return b}function T(){P();J(!0)?(K=!0,L(T)):K=!1}function Q(){K||(K=!0,L(T))}function U(a,b){var c=[];a.split(b).forEach(function(a){c.push(parseFloat(a))});return c}function t(a){-1==a.indexOf(",")&&(a=a.replace(" ",","));return U(a,",")}function V(a){a._ks||(a._ks={H:M},++M);if(!a._ks.transform){for(var b=
a._ks.transform=[],c=0;14>=c;++c)b[c]=0;b[10]=1;b[11]=1;if(c=a.getAttribute("transform")){for(c=c.trim().split(") ");0<a._ks.w;)c.shift(),--a._ks.w;a=c.shift();v(a,"translate(")&&(a=t(a.substring(10)),b[1]=a[0],b[2]=z(a[1])?a[1]:0,a=c.shift());v(a,"rotate(")&&(a=t(a.substring(7)),b[6]=a[0],a=c.shift());v(a,"skewX(")&&(a=t(a.substring(6)),b[7]=a[0],a=c.shift());v(a,"skewY(")&&(a=t(a.substring(6)),b[8]=a[0],a=c.shift());v(a,"scale(")&&(a=t(a.substring(6)),b[10]=a[0],b[11]=z(a[1])?a[1]:0,a=c.shift());
v(a,"translate(")&&(a=t(a.substring(10)),b[13]=a[0],b[14]=z(a[1])?a[1]:0)}}}function W(a){this.C=a;this.v=[];this.o=[];this.g=0;this.i=this.a=this.b=null;this.f=this.A=this.l=this.h=!1}function G(a,b,c){b=a[b];void 0===b&&(b=a[c]);return b}function ba(a){return Array.isArray(a)?a:v(a,"cubic-bezier(")?(a=a.substring(13,a.length-1).split(","),[1,parseFloat(a[0]),parseFloat(a[1]),parseFloat(a[2]),parseFloat(a[3])]):v(a,"steps(")?(a=a.substring(6,a.length-1).split(","),[a[1]&&"start"==a[1].trim()?2:3,
parseFloat(a[0])]):[0]}function ca(a){a=a.trim();return v(a,"#")?(parseInt(a.substring(1),16)<<8)+255:v(a,"rgba(")?(a=a.substring(5,a.length-1),a=a.split(","),(parseInt(a[0],10)<<24)+(parseInt(a[1],10)<<16)+(parseInt(a[2],10)<<8)+255*parseFloat(a[3])<<0):a}var da=" translate translate    rotate skewX skewY  scale scale  translate translate".split(" "),R="none url blur brightness contrast drop-shadow grayscale hue-rotate invert opacity saturate sepia".split(" "),L=window.requestAnimationFrame||window.webkitRequestAnimationFrame||
window.mozRequestAnimationFrame||window.oRequestAnimationFrame||window.msRequestAnimationFrame||null;L||(L=function(a){window.setTimeout(a,16)});var M=0,X={d:97,fill:48,fillOpacity:16,filter:80,height:33,opacity:16,stroke:48,strokeDasharray:64,strokeDashoffset:32,strokeOpacity:16,strokeWidth:32,transform:1,width:33},K=!1,A=(new Date).getTime(),x=[];W.prototype={j:function(a){var b=!1;if(null!==this.b){var c=this.c();null!==c&&c>=this.g?(b=!0,a?this.a=c:this.a=this.i?Math.max(this.i,this.g):this.g):
null!==c&&(a&&null!==this.a&&(this.b=A-this.a/1),this.a=null)}this.i=this.c();return b},F:function(a){a&&(this.h&&(this.h=!1,null===this.b&&(null!==this.a?(this.b=A-this.a/1,this.a=null):this.b=A)),null===this.a&&null!==this.b&&this.j(!1)&&(this.l=!0));a=this.c();if(null===a)return!1;for(var b=this.v,c=this.o,d=0;d<b.length;++d){for(var e=b[d],k=!1,h=0;h<c[d].length;++h){var f=c[d][h],g=f[0];if(null!==g){var l=f[2];var q=f[4].length,n=f[4][q-1]-l;l=0==n?f[5][q-1]:a<=l?f[5][0]:a>=l+f[3]?0==f[3]%n?
f[5][q-1]:S(f[3]%n,f):S((a-l)%n,f);0==g?(e._ks.mpath=f[8],e._ks.transform[g]=l,k=!0):14>=g?(e._ks.transform[g]=l,k=!0):(l=Z(f[1]&240,l),f[1]&1?e.setAttribute(g,l):e.style[g]=l)}}if(k){V(e);k=e._ks.transform;h="";if(f=e._ks.mpath)l=k[0]*f[2]/100,g=f[1].getPointAtLength(l),h="translate("+g.x+","+g.y+") ",f[0]&&(.5>l?(l=g,g=f[1].getPointAtLength(.5)):l=f[1].getPointAtLength(l-.5),h+="rotate("+180*Math.atan2(g.y-l.y,g.x-l.x)/Math.PI+") ");for(f=1;f<k.length;++f)g=k[f],g!=(10==f||11==f?1:0)&&(h+=" "+da[f]+
"(",h=2>=f?h+(1==f?g+",0":"0,"+g):13<=f?h+(13==f?g+",0":"0,"+g):10<=f?h+(10==f?g+",1":"1,"+g):h+g,h+=")");e.setAttribute("transform",h)}}return"running"==this.B()},s:function(){if(!this.A){this.A=!0;for(var a=this.v,b=this.o,c=0;c<a.length;++c)for(var d=a[c],e=!1,k=0;k<b[c].length;++k){var h=b[c][k][0];14>=h?d._ks.G||(V(d),d._ks.G=d._ks.transform.slice()):(d._ks.m||(d._ks.m={}),z(d._ks.m[h])||(e||(e=getComputedStyle(d)),d._ks.m[h]=O(h)&1?d.getAttribute(h):e[h]))}}},play:function(a){z(a)&&this.u(a,
!0);if(!this.f)return this;a=this.c();if(null===a||0>a||a>=this.g)this.a=0;if(null===this.a)return this;this.b=null;this.h=!0;this.s();Q();return this},pause:function(a){z(a)&&this.u(a,!0);if(!this.f||"paused"==this.B())return this;z(a)||P();a=this.c();null===a&&(this.a=0);null!==this.b&&null===this.a&&(this.a=a);this.b=null;this.h=!1;this.j(!1);this.s();J(!1);return this},c:function(){return null!==this.a?this.a:null===this.b?null:1*(A-this.b)},u:function(a,b){N(a);b&&P();null!==a&&(this.s(),null!==
this.a||null===this.b?(this.a=a,J(!1)):this.b=A-a/1,this.f||(this.b=null),this.i=null,this.j(!0),Q())},I:function(){return this.c()},time:function(a){return z(a)?(this.f&&this.u(a,!0),this):this.I()},startTime:function(a){if(z(a)){N(a);if(!this.f)return this;this.i=this.c();this.b=a;null!==a?this.a=null:this.a=this.i;this.h=!1;this.j(!0);J(!1);Q();return this}return this.D?this.D[0].startTime:this.b},B:function(){var a=this.c();return this.h?"running":null===a?"idle":null===this.b?"paused":a>=this.g?
"finished":"running"}};return{setmptr:function(a){for(var b in a){var c=document.getElementById(b);c._ks||(c._ks={});c._ks.w=a[b]}},animate:function(){if(0<x.length)throw"data already set";var a={};if(1==arguments.length%2){a=arguments[arguments.length-1];var b={};for(c in a)b[c]=a[c];a=b}var c=new W(a);a=arguments;for(var d=b=0;d<a.length-1;d+=2){var e=a[d];var k=e instanceof Element?e:document.getElementById(e.substring(1));if(!k)throw"invalid target: "+e;e=k;k=a[d+1];e._ks||(e._ks={H:M},++M);for(var h=
[],f=0;f<k.length;++f){var g=k[f],l=G(g,"p","property");14>=l||-1==l.indexOf("-")||(l=null);var q=O(l);q||(q=0);var n=G(g,"t","times");if(!n||2>n.length)throw"not enough times";n=n.slice();if(!isFinite(n[0])||0>n[0])throw"bad time: "+n[0];for(var y=1;y<n.length;++y)if(!isFinite(n[y])||0>n[y]||n[y]<n[y-1])throw"bad time: "+n[y];y=n[0];var w=n[n.length-1]-y,A=g.iterations||0;1>A&&(A=1);w*=A;b<w+y&&(b=w+y);var t=G(g,"v","values");if(!t||t.length!=n.length)throw"values don't match times";t=t.slice();
for(var B=l,m=t,H=O(B)&240,p=0;p<m.length;++p)if(96==H){for(var F=m[p].substring(6,m[p].length-2).match(/[A-DF-Za-df-z][-+0-9eE., ]*/ig),I=[],r=0;r<F.length;++r){I.push(F[r][0]);for(var u=1<F[r].trim().length?F[r].substring(1).split(","):[],E=0;E<u.length;++E)u[E]=parseFloat(u[E]);I.push(u)}m[p]=I}else if(48==H)v(m[p],"#")?m[p]=parseInt(m[p].substring(1),16):v(m[p],"url(")||"none"==m[p]||(console.warn("unsupported color: "+m[p]),m[p]=0);else if(80==H){F=m;I=p;r=m[p];if("none"==r)r=[0];else{u=[];for(var C=
r.indexOf("(");0<C;)if(E=R.indexOf(r.substring(0,C)),0<=E){u.push(E);var D=r.indexOf(") ");0>D&&(D=r.length-1);C=r.substring(C+1,D).split(" ");5==E?(u.push(parseFloat(C[0])),u.push(parseFloat(C[1])),u.push(parseFloat(C[2])),u.push(ca(C[3]))):1==E?u.push(C[0]):u.push(parseFloat(C[0]));r=r.substring(D+1).trim();C=r.indexOf("(")}else break;r=u}F[I]=r}else 64==H?"none"!=m[p]?/^[0-9 .]*$/.test(m[p])?m[p]=U(m[p]," "):(console.warn("unsupported value: "+m[p]),m[p]=[0]):m[p]=[0]:32==H?(N(m[p]),m[p]=parseFloat(m[p])):
0===B&&(m[p]=parseFloat(m[p]));B=G(g,"e","easing");m=n.length;for(B||(B=[]);B.length<m;)B.push([1,0,0,.58,1]);for(m=0;m<B.length;++m)B[m]=ba(B[m]);q=[l,q,y,w,n,t,B,A];n=G(g,"m","motionPath");z(n)&&0===l&&(q[8]=[],q[8][0]=g.motionRotate,g=document.createElementNS("http://www.w3.org/2000/svg","path"),n||(n="M0,0"),g.setAttribute("d",n),q[8][1]=g,q[8][2]=g.getTotalLength());h.push(q)}0<h.length&&(c.v.push(e),c.o.push(h))}c.g=b;!1===c.f&&(x.push(c),c.f=!0,!1!==c.C.autoplay&&c.play());return c},_priv_list:function(){return x.slice()},
play:function(){return x[0]?x[0].play():this},pause:function(){return x[0]?x[0].pause():this},time:function(a){return x[0]?x[0].time(a):z(a)?this:null}}}();
document.ks=ks;(function(ks){
ks.animate("#Path-28",[{p:'d',t:[0,5000,14000,20000],v:["path('M762.708,66.4229C762.708,66.4229,1007.85,305.633,885.279,366.918C762.708,428.204,525.475,416.342,644.092,542.866C762.708,669.391,831.901,742.538,689.561,835.454C547.221,928.37,400.927,799.869,511.636,969.886C622.345,1139.9,541.29,1189.33,480.005,1197.23C418.72,1205.14,179.51,1234.8,270.449,1315.85C361.389,1396.91,393.02,1468.08,349.527,1525.41C306.034,1582.74,292.196,1614.37,329.758,1691.47C367.319,1768.57,236.841,1851.6,203.233,1736.94C169.625,1622.28,136.017,1531.34,169.625,1468.08C203.233,1404.81,205.21,1359.34,136.017,1331.67C66.824,1303.99,54.9623,1126.06,157.763,1092.46C260.564,1058.85,131.046,1077.93,169.625,954.071C208.205,830.21,151.833,776.146,270.449,730.676C389.066,685.206,379.181,600.198,329.758,542.866C280.334,485.535,256.611,323.426,361.389,285.864C466.167,248.302,687.584,230.509,659.907,161.316C632.23,92.1231,762.708,66.4229,762.708,66.4229Z')","path('M762.708,66.4229C762.708,66.4229,1007.85,305.633,885.279,366.918C762.708,428.204,525.475,416.342,644.092,542.866C762.708,669.391,831.901,742.538,689.561,835.454C547.221,928.37,400.927,799.869,511.636,969.886C622.345,1139.9,541.29,1189.33,480.005,1197.23C418.72,1205.14,179.51,1234.8,270.449,1315.85C361.389,1396.91,393.02,1468.08,349.527,1525.41C306.034,1582.74,292.196,1614.37,329.758,1691.47C367.319,1768.57,236.841,1851.6,203.233,1736.94C169.625,1622.28,136.017,1531.34,169.625,1468.08C203.233,1404.81,205.21,1359.34,136.017,1331.67C66.824,1303.99,54.9623,1126.06,157.763,1092.46C260.564,1058.85,111.139,1099.08,149.718,975.218C188.298,851.357,141.708,767.202,260.324,721.732C378.941,676.262,361.121,613.484,311.698,556.152C262.274,498.821,273.226,282.604,378.004,245.042C482.782,207.48,687.584,230.509,659.907,161.316C632.23,92.1231,762.708,66.4229,762.708,66.4229Z')","path('M762.708,66.4229C762.708,66.4229,1007.85,305.633,885.279,366.918C762.708,428.204,525.475,416.342,644.092,542.866C762.708,669.391,831.901,742.538,689.561,835.454C547.221,928.37,400.927,799.869,511.636,969.886C622.345,1139.9,541.29,1189.33,480.005,1197.23C418.72,1205.14,179.51,1234.8,270.449,1315.85C361.389,1396.91,393.02,1468.08,349.527,1525.41C306.034,1582.74,292.196,1614.37,329.758,1691.47C367.319,1768.57,236.841,1851.6,203.233,1736.94C169.625,1622.28,136.017,1531.34,169.625,1468.08C203.233,1404.81,205.21,1359.34,136.017,1331.67C66.824,1303.99,54.9623,1126.06,157.763,1092.46C260.564,1058.85,131.046,1077.93,169.625,954.071C208.205,830.21,151.833,776.146,270.449,730.676C389.066,685.206,379.181,600.198,329.758,542.866C280.334,485.535,256.611,323.426,361.389,285.864C466.167,248.302,687.584,230.509,659.907,161.316C632.23,92.1231,762.708,66.4229,762.708,66.4229Z')","path('M762.708,66.4229C762.708,66.4229,1007.85,305.633,885.279,366.918C762.708,428.204,525.475,416.342,644.092,542.866C762.708,669.391,831.901,742.538,689.561,835.454C547.221,928.37,400.927,799.869,511.636,969.886C622.345,1139.9,541.29,1189.33,480.005,1197.23C418.72,1205.14,179.51,1234.8,270.449,1315.85C361.389,1396.91,393.02,1468.08,349.527,1525.41C306.034,1582.74,292.196,1614.37,329.758,1691.47C367.319,1768.57,236.841,1851.6,203.233,1736.94C169.625,1622.28,136.017,1531.34,169.625,1468.08C203.233,1404.81,205.21,1359.34,136.017,1331.67C66.824,1303.99,54.9623,1126.06,157.763,1092.46C260.564,1058.85,111.139,1099.08,149.718,975.218C188.298,851.357,141.708,767.202,260.324,721.732C378.941,676.262,361.121,613.484,311.698,556.152C262.274,498.821,273.226,282.604,378.004,245.042C482.782,207.48,687.584,230.509,659.907,161.316C632.23,92.1231,762.708,66.4229,762.708,66.4229Z')"],e:[[0],[0],[0],[0]],iterations:Infinity}],
"#Path-26-Copy-2",[{p:'d',t:[0,5000,14000,20000],v:["path('M1199.51,171.912C1154.43,189.945,1121.1,216.718,1091.98,328.731C1062.86,440.745,1015.81,445.226,937.401,458.668C858.991,472.109,735.776,555,729.055,673.734C722.334,792.469,764.899,924.646,729.055,980.653C693.21,1036.66,720.094,1124.03,782.821,1056.82C845.549,989.614,874.673,835.034,1004.61,792.469C1134.55,749.904,1336.17,642.37,1313.77,550.519C1291.36,458.668,1217.44,326.491,1226.4,274.965C1235.36,223.438,1244.6,153.879,1199.51,171.912Z')","path('M1226.4,99C1181.32,117.033,1123.12,162.951,1094,274.965C1064.88,386.979,989.409,472.558,911,486C832.59,499.441,687.721,581.266,681,700C674.279,818.735,764.899,924.646,729.055,980.653C693.21,1036.66,720.094,1124.03,782.821,1056.82C845.549,989.614,874.673,835.034,1004.61,792.469C1134.55,749.904,1336.17,642.37,1313.77,550.519C1291.36,458.668,1217.44,326.491,1226.4,274.965C1235.36,223.438,1271.49,80.967,1226.4,99Z')","path('M1199.51,171.912C1154.43,189.945,1121.1,216.718,1091.98,328.731C1062.86,440.745,1015.81,445.226,937.401,458.668C858.991,472.109,735.776,555,729.055,673.734C722.334,792.469,764.899,924.646,729.055,980.653C693.21,1036.66,720.094,1124.03,782.821,1056.82C845.549,989.614,874.673,835.034,1004.61,792.469C1134.55,749.904,1336.17,642.37,1313.77,550.519C1291.36,458.668,1217.44,326.491,1226.4,274.965C1235.36,223.438,1244.6,153.879,1199.51,171.912Z')","path('M1226.4,99C1181.32,117.033,1123.12,162.951,1094,274.965C1064.88,386.979,989.409,472.558,911,486C832.59,499.441,687.721,581.266,681,700C674.279,818.735,764.899,924.646,729.055,980.653C693.21,1036.66,720.094,1124.03,782.821,1056.82C845.549,989.614,874.673,835.034,1004.61,792.469C1134.55,749.904,1336.17,642.37,1313.77,550.519C1291.36,458.668,1217.44,326.491,1226.4,274.965C1235.36,223.438,1271.49,80.967,1226.4,99Z')"],e:[[0],[0],[0],[0]],iterations:Infinity}],
"#Path-27-Copy",[{p:'d',t:[0,5000,14000,20000],v:["path('M38.2532,367.449C-82.0603,431.42,-147.765,437.508,-170.543,641.01C-193.321,844.513,-122.093,892.887,-107.904,822.828C-93.7149,752.77,-123.089,662.695,-49.0615,679.376C24.9662,696.056,-13.9928,776.551,-39.5708,846.181C-65.1488,915.811,-28.088,1044.25,5.08261,1044.25C38.2532,1044.25,7.99772,902.445,24.9662,871.202C41.9346,839.959,104.688,829.501,104.688,892.887C104.688,956.273,157.836,1095.39,199.596,1078.71C241.355,1062.03,190.105,1022.99,182.512,934.588C174.92,846.181,193.901,744.43,248.947,651.019C303.994,557.608,322.975,424.163,281.216,400.81C239.457,377.458,158.567,303.479,38.2532,367.449Z')","path('M38.2532,367.449C-82.0603,431.42,-147.765,437.508,-170.543,641.01C-193.321,844.513,-122.093,892.887,-107.904,822.828C-93.7149,752.77,-123.089,662.695,-49.0615,679.376C24.9662,696.056,-13.9928,776.551,-39.5708,846.181C-65.1488,915.811,-9.1706,1108.08,24,1108.08C57.1706,1108.08,7.99772,902.445,24.9662,871.202C41.9346,839.959,104.688,829.501,104.688,892.887C104.688,956.273,191.24,1168.76,233,1152.08C274.759,1135.4,190.105,1022.99,182.512,934.588C174.92,846.181,193.901,744.43,248.947,651.019C303.994,557.608,322.975,424.163,281.216,400.81C239.457,377.458,158.567,303.479,38.2532,367.449Z')","path('M38.2532,367.449C-82.0603,431.42,-147.765,437.508,-170.543,641.01C-193.321,844.513,-122.093,892.887,-107.904,822.828C-93.7149,752.77,-123.089,662.695,-49.0615,679.376C24.9662,696.056,-13.9928,776.551,-39.5708,846.181C-65.1488,915.811,-28.088,1044.25,5.08261,1044.25C38.2532,1044.25,7.99772,902.445,24.9662,871.202C41.9346,839.959,104.688,829.501,104.688,892.887C104.688,956.273,157.836,1095.39,199.596,1078.71C241.355,1062.03,190.105,1022.99,182.512,934.588C174.92,846.181,193.901,744.43,248.947,651.019C303.994,557.608,322.975,424.163,281.216,400.81C239.457,377.458,158.567,303.479,38.2532,367.449Z')","path('M38.2532,367.449C-82.0603,431.42,-147.765,437.508,-170.543,641.01C-193.321,844.513,-122.093,892.887,-107.904,822.828C-93.7149,752.77,-123.089,662.695,-49.0615,679.376C24.9662,696.056,-13.9928,776.551,-39.5708,846.181C-65.1488,915.811,-9.1706,1108.08,24,1108.08C57.1706,1108.08,7.99772,902.445,24.9662,871.202C41.9346,839.959,104.688,829.501,104.688,892.887C104.688,956.273,191.24,1168.76,233,1152.08C274.759,1135.4,190.105,1022.99,182.512,934.588C174.92,846.181,193.901,744.43,248.947,651.019C303.994,557.608,322.975,424.163,281.216,400.81C239.457,377.458,158.567,303.479,38.2532,367.449Z')"],e:[[0],[0],[0],[0]],iterations:Infinity}],
"#Path-8",[{p:'d',t:[0,5000,14000,20000],v:["path('M-14,255.165C-14,255.165,43,264.165,48,229.165C53,194.165,30,118.165,39,90.1646C48,62.1646,94,46.1646,119,68.1646C144,90.1646,183,116.165,220,82.1646C257,48.1646,313,-12.8354,356,-5.83544C399,1.16456,493,35.1646,509,14.1646C525,-6.83544,594,14.1646,612,22.1646C630,30.1646,655,54.1646,697,68.1646C739,82.1646,801,101.165,856,54.1646C911,7.16456,929,-46.8354,974,-64.8354C1019,-82.8354,1051,-121.835,1082,-115.835C1113,-109.835,1153,-130.835,1158,-141.835C1163,-152.835,1162,-206.835,1148,-209.835C1134,-212.835,930,-222.835,918,-200.835C906,-178.835,892,-162.835,901,-130.835C910,-98.8354,921,-82.8354,906,-70.8354C891,-58.8354,885,-52.8354,878,-42.8354C871,-32.8354,854,-42.8354,844,-42.8354C834,-42.8354,823,-42.8354,820,-24.8354C817,-6.83544,779,11.1646,762,2.16456C745,-6.83544,741,-6.83544,723,-6.83544C705,-6.83544,685,-22.8354,672,-32.8354C659,-42.8354,611,-40.8354,584,-32.8354C557,-24.8354,509,-14.8354,509,-28.8354C509,-42.8354,482,-97.8354,471,-106.835C460,-115.835,435,-101.835,423,-92.8354C411,-83.8354,387,-102.835,375,-111.835C363,-120.835,338,-114.835,335,-92.8354C332,-70.8354,243,-64.8354,214,-78.8354C185,-92.8354,164,-148.835,144,-196.835C130.667,-228.835,71.3333,-234.502,-34,-213.835L-40,199.165C-22.6667,236.498,-14,255.165,-14,255.165Z')","path('M-14,255.165C-14,255.165,43,264.165,48,229.165C53,194.165,30,118.165,39,90.1646C48,62.1646,84,87,109,109C134,131,183,116.165,220,82.1646C257,48.1646,257,47.1646,300,54.1646C343,61.1646,473,35.1646,489,14.1646C505,-6.83544,594,14.1646,612,22.1646C630,30.1646,695,74.1646,737,88.1646C779,102.165,851,69.165,906,22.1646C961,-24.8354,929,-46.8354,974,-64.8354C1019,-82.8354,1051,-121.835,1082,-115.835C1113,-109.835,1153,-130.835,1158,-141.835C1163,-152.835,1162,-206.835,1148,-209.835C1134,-212.835,930,-222.835,918,-200.835C906,-178.835,892,-162.835,901,-130.835C910,-98.8354,921,-82.8354,906,-70.8354C891,-58.8354,885,-52.8354,878,-42.8354C871,-32.8354,854,-42.8354,844,-42.8354C834,-42.8354,823,-42.8354,820,-24.8354C817,-6.83544,779,11.1646,762,2.16456C745,-6.83544,741,-6.83544,723,-6.83544C705,-6.83544,685,-22.8354,672,-32.8354C659,-42.8354,611,-40.8354,584,-32.8354C557,-24.8354,509,-14.8354,509,-28.8354C509,-42.8354,482,-97.8354,471,-106.835C460,-115.835,435,-101.835,423,-92.8354C411,-83.8354,387,-102.835,375,-111.835C363,-120.835,338,-114.835,335,-92.8354C332,-70.8354,243,-64.8354,214,-78.8354C185,-92.8354,164,-148.835,144,-196.835C130.667,-228.835,71.3333,-234.502,-34,-213.835L-40,199.165C-22.6667,236.498,-14,255.165,-14,255.165Z')","path('M-14,255.165C-14,255.165,43,264.165,48,229.165C53,194.165,30,118.165,39,90.1646C48,62.1646,94,46.1646,119,68.1646C144,90.1646,183,116.165,220,82.1646C257,48.1646,313,-12.8354,356,-5.83544C399,1.16456,493,35.1646,509,14.1646C525,-6.83544,594,14.1646,612,22.1646C630,30.1646,655,54.1646,697,68.1646C739,82.1646,801,101.165,856,54.1646C911,7.16456,929,-46.8354,974,-64.8354C1019,-82.8354,1051,-121.835,1082,-115.835C1113,-109.835,1153,-130.835,1158,-141.835C1163,-152.835,1162,-206.835,1148,-209.835C1134,-212.835,930,-222.835,918,-200.835C906,-178.835,892,-162.835,901,-130.835C910,-98.8354,921,-82.8354,906,-70.8354C891,-58.8354,885,-52.8354,878,-42.8354C871,-32.8354,854,-42.8354,844,-42.8354C834,-42.8354,823,-42.8354,820,-24.8354C817,-6.83544,779,11.1646,762,2.16456C745,-6.83544,741,-6.83544,723,-6.83544C705,-6.83544,685,-22.8354,672,-32.8354C659,-42.8354,611,-40.8354,584,-32.8354C557,-24.8354,509,-14.8354,509,-28.8354C509,-42.8354,482,-97.8354,471,-106.835C460,-115.835,435,-101.835,423,-92.8354C411,-83.8354,387,-102.835,375,-111.835C363,-120.835,338,-114.835,335,-92.8354C332,-70.8354,243,-64.8354,214,-78.8354C185,-92.8354,164,-148.835,144,-196.835C130.667,-228.835,71.3333,-234.502,-34,-213.835L-40,199.165C-22.6667,236.498,-14,255.165,-14,255.165Z')","path('M-14,255.165C-14,255.165,43,264.165,48,229.165C53,194.165,30,118.165,39,90.1646C48,62.1646,84,87,109,109C134,131,183,116.165,220,82.1646C257,48.1646,257,47.1646,300,54.1646C343,61.1646,473,35.1646,489,14.1646C505,-6.83544,594,14.1646,612,22.1646C630,30.1646,695,74.1646,737,88.1646C779,102.165,851,69.165,906,22.1646C961,-24.8354,929,-46.8354,974,-64.8354C1019,-82.8354,1051,-121.835,1082,-115.835C1113,-109.835,1153,-130.835,1158,-141.835C1163,-152.835,1162,-206.835,1148,-209.835C1134,-212.835,930,-222.835,918,-200.835C906,-178.835,892,-162.835,901,-130.835C910,-98.8354,921,-82.8354,906,-70.8354C891,-58.8354,885,-52.8354,878,-42.8354C871,-32.8354,854,-42.8354,844,-42.8354C834,-42.8354,823,-42.8354,820,-24.8354C817,-6.83544,779,11.1646,762,2.16456C745,-6.83544,741,-6.83544,723,-6.83544C705,-6.83544,685,-22.8354,672,-32.8354C659,-42.8354,611,-40.8354,584,-32.8354C557,-24.8354,509,-14.8354,509,-28.8354C509,-42.8354,482,-97.8354,471,-106.835C460,-115.835,435,-101.835,423,-92.8354C411,-83.8354,387,-102.835,375,-111.835C363,-120.835,338,-114.835,335,-92.8354C332,-70.8354,243,-64.8354,214,-78.8354C185,-92.8354,164,-148.835,144,-196.835C130.667,-228.835,71.3333,-234.502,-34,-213.835L-40,199.165C-22.6667,236.498,-14,255.165,-14,255.165Z')"],e:[[0],[0],[0],[0]],iterations:Infinity}],
"#Path-26-Copy",[{p:'d',t:[0,5000,14000,20000],v:["path('M1296.51,172.912C1251.43,190.945,1218.1,217.718,1188.98,329.731C1159.86,441.745,1112.81,446.226,1034.4,459.668C955.991,473.109,832.776,556,826.055,674.734C819.334,793.469,861.899,925.646,826.055,981.653C790.21,1037.66,817.094,1125.03,879.821,1057.82C942.549,990.614,971.673,836.034,1101.61,793.469C1231.55,750.904,1433.17,643.37,1410.77,551.519C1388.36,459.668,1314.44,327.491,1323.4,275.965C1332.36,224.438,1341.6,154.879,1296.51,172.912Z')","path('M1296.51,172.912C1251.43,190.945,1218.1,217.718,1188.98,329.731C1159.86,441.745,1110.41,515.558,1032,529C953.591,542.441,760.721,594.265,754,713C747.279,831.735,861.899,925.646,826.055,981.653C790.21,1037.66,817.094,1125.03,879.821,1057.82C942.549,990.614,971.673,836.034,1101.61,793.469C1231.55,750.904,1433.17,643.37,1410.77,551.519C1388.36,459.668,1314.44,327.491,1323.4,275.965C1332.36,224.438,1341.6,154.879,1296.51,172.912Z')","path('M1296.51,172.912C1251.43,190.945,1218.1,217.718,1188.98,329.731C1159.86,441.745,1112.81,446.226,1034.4,459.668C955.991,473.109,832.776,556,826.055,674.734C819.334,793.469,861.899,925.646,826.055,981.653C790.21,1037.66,817.094,1125.03,879.821,1057.82C942.549,990.614,971.673,836.034,1101.61,793.469C1231.55,750.904,1433.17,643.37,1410.77,551.519C1388.36,459.668,1314.44,327.491,1323.4,275.965C1332.36,224.438,1341.6,154.879,1296.51,172.912Z')","path('M1296.51,172.912C1251.43,190.945,1218.1,217.718,1188.98,329.731C1159.86,441.745,1110.41,515.558,1032,529C953.591,542.441,760.721,594.265,754,713C747.279,831.735,861.899,925.646,826.055,981.653C790.21,1037.66,817.094,1125.03,879.821,1057.82C942.549,990.614,971.673,836.034,1101.61,793.469C1231.55,750.904,1433.17,643.37,1410.77,551.519C1388.36,459.668,1314.44,327.491,1323.4,275.965C1332.36,224.438,1341.6,154.879,1296.51,172.912Z')"],e:[[0],[0],[0],[0]],iterations:Infinity}],
{autoplay:document.location.search.substr(1).split('&').indexOf('autoplay=false')<0})
})(ks);
]]></script>
</svg>
